<svg width="93" height="70" viewBox="0 0 93 70" fill="none" xmlns="http://www.w3.org/2000/svg">
<path d="M92.0713 68.6717C92.3471 68.6737 92.5728 68.8994 92.5755 69.1759C92.5781 69.4524 92.3568 69.675 92.081 69.6731L92.0713 68.6717ZM50.6326 35.7756L50.1528 35.6292L50.6326 35.7756ZM62.0452 29.4232L62.1943 28.9479L62.0452 29.4232ZM62.6424 61.7031L62.9492 62.1032L62.6424 61.7031ZM36.9304 64.2729L36.8095 64.7566L36.9304 64.2729ZM4.06506 0.617366C4.27366 0.440023 4.58898 0.468248 4.76935 0.680408L7.70871 4.13776C7.88908 4.34992 7.86621 4.66567 7.65761 4.84302C7.44902 5.02036 7.13369 4.99214 6.95332 4.77997L4.34056 1.70677L1.31899 4.27564C1.1104 4.45298 0.795076 4.42475 0.614702 4.21259C0.434328 4.00043 0.457207 3.68468 0.665802 3.50734L4.06506 0.617366ZM92.081 69.6731C81.5885 69.5992 69.6684 66.2837 61.0858 60.4168C52.4947 54.5441 47.154 46.0299 50.1528 35.6292L51.1125 35.9221C48.2791 45.7493 53.2534 53.8603 61.6388 59.5924C70.0327 65.3303 81.7505 68.5991 92.0713 68.6717L92.081 69.6731ZM50.1528 35.6292C51.132 32.2329 52.9482 30.1471 55.1574 29.1256C57.355 28.1094 59.8694 28.1797 62.1943 28.9479L61.8961 29.8984C59.7497 29.1892 57.5052 29.1497 55.588 30.0362C53.6825 30.9173 52.0281 32.7464 51.1125 35.9221L50.1528 35.6292ZM62.1943 28.9479C67.9472 30.8488 71.6723 36.1661 71.8212 43.8578L70.8227 43.8605C70.6804 36.5084 67.1586 31.6373 61.8961 29.8984L62.1943 28.9479ZM71.8212 43.8578C71.9702 51.5582 67.9802 58.2587 62.9492 62.1032L62.3356 61.303C67.153 57.6217 70.9649 51.2037 70.8227 43.8605L71.8212 43.8578ZM62.9492 62.1032C59.0789 65.0607 54.1051 66.1349 49.3473 66.2709C44.5844 66.407 39.9856 65.6046 36.8095 64.7566L37.0513 63.7892C40.1584 64.6188 44.6584 65.4026 49.3022 65.2699C53.951 65.1371 58.6916 64.0876 62.3356 61.303L62.9492 62.1032ZM36.8095 64.7566C24.4024 61.444 16.1475 52.9858 10.1381 40.8093L11.0317 40.3773C16.9534 52.3763 25.0087 60.5739 37.0513 63.7892L36.8095 64.7566ZM10.1381 40.8093C4.11513 28.6053 3.0418 12.7137 3.89365 0.956938L4.88967 1.04609C4.04365 12.7224 5.12358 28.406 11.0317 40.3773L10.1381 40.8093Z" fill="white"/>
</svg>
